<svg xmlns="http://www.w3.org/2000/svg" viewBox="0 0 180 180">
  <rect width="180" height="180" rx="40" fill="#181818"/>
  <!-- Stork body -->
  <ellipse cx="65" cy="100" rx="22" ry="16" fill="#C9A227" opacity="0.85"/>
  <!-- Wing -->
  <path d="M48 96C42 92 40 100 46 104C50 106 56 105 54 101" fill="#C9A227" opacity="0.5"/>
  <!-- Neck -->
  <path d="M78 90C82 80 84 68 80 56" stroke="#C9A227" stroke-width="5" stroke-linecap="round" fill="none"/>
  <!-- Head -->
  <circle cx="79" cy="52" r="8" fill="#C9A227"/>
  <!-- Eye -->
  <circle cx="81" cy="50" r="2.2" fill="#181818"/>
  <!-- Beak -->
  <path d="M87 52L100 50" stroke="#C9A227" stroke-width="4" stroke-linecap="round"/>
  <!-- Legs -->
  <path d="M58 116L54 138M72 116L76 138" stroke="#C9A227" stroke-width="4" stroke-linecap="round"/>
  <!-- Toddler head -->
  <circle cx="125" cy="95" r="15" fill="#C9A227" opacity="0.8"/>
  <!-- Toddler eyes -->
  <circle cx="121" cy="93" r="2.5" fill="#181818"/>
  <circle cx="130" cy="93" r="2.5" fill="#181818"/>
  <!-- Toddler smile -->
  <path d="M119 99C121 102 129 102 131 99" stroke="#181818" stroke-width="2" stroke-linecap="round" fill="none"/>
  <!-- Toddler body -->
  <ellipse cx="125" cy="125" rx="13" ry="15" fill="#C9A227" opacity="0.6"/>
  <!-- Toddler arm reaching -->
  <path d="M112 118C105 113 95 108 88 103" stroke="#C9A227" stroke-width="4" stroke-linecap="round" fill="none" opacity="0.7"/>
  <!-- Heart between them -->
  <path d="M92 70C92 66 95 65 97 68C99 65 102 66 102 70C102 74 97 78 97 78C97 78 92 74 92 70Z" fill="#C9A227" opacity="0.6"/>
</svg>
